<svg display="block" height="500" preserveAspectRatio="none" viewBox="0 0 2000 2000" width="500" xmlns="http://www.w3.org/2000/svg"><path d="m196.381 1057.65c-3.118-14.49-2.479-45.6-2.271-61.052 2.813-208.535 73.201-407.728 218.32-559.824 6.59-6.908 16.613-14.233 24.048-20.959 68.801-62.28 151.152-110.926 238.068-143.347 178.972-66.76 396.724-66.103 576.104-1.223 11.98 5.968 26.08 10.68 38.57 16.142l.85.483c26.68 14.953 53.21 26.688 79.83 43.456 186.46 117.42 275.55 333.903 258.59 549.496-1.4 17.762-1.22 35.728-6.18 53.193l-1.18 4.156c47.59-12.152 77.07-30.509 102.95-74.296 10.51-18.102 18.3-37.661 23.1-58.04-26.45-20.588-47.13-48.318-20.55-80.531 1.31-1.548 2.67-3.041 4.1-4.474-5.72-7.333-16.75-20.303-20.27-28.447-11.2-25.868-16.77-56.537-12.65-84.593 6.25-42.611 17.04-60.705 62.24-61.946 3.76-30.673 11.01-62.774 15.29-93.437 3.68-26.413 8.76-40.914 19.45-65.509 11.28-25.963 25.29-52.231 59.23-47.696 39.22 5.838 37.85 51.61 31.08 81.025-5.07 22.061-12.96 53.141-21.34 74.274 37.56-8.149 61.5 9.251 61.65 48.138 53.5-18.454 77.3 22.488 59.04 69.166-2.15 5.481-5.73 12.602-7.1 18.474-2.73 33.866-6.49 55.552-22.55 86.306-6.28 12.334-14.73 23.44-24.94 32.789-5.07 4.607-29.99 21.536-30 22.413-.34 27.184-6.45 46.89-41.99 57.738-3.75 1.125-7.52 2.203-11.3 3.233-13.36 66.768-60.63 138.568-118.07 174.702-46.85 29.47-80.16 34.94-133.31 38.87-2.05 8.74-4.11 16.45-6.94 24.96-1.15 3.46-5.68 14.89-5.92 17.45-4.13 7.68-12.47 25.85-15.57 34.09-60.15 121-157.51 214.67-293.28 241.91-62.12 12.46-140.14 12-194.86-23.99-33.27-21.88-46.6-55.39-54.08-92.97-67.51 91.07-167.343 141.84-282.38 121.92-26.032-4.51-55.854-12.02-79.534-23.19-364.838-172.11-140.667-844.61 246.029-802.993 90.709 9.762 129.725 50.522 179.455 120.667 4.18-31.782 10.52-61.175 14.78-91.7 43.18-1.55 87.74 1.048 131.08-.217 14.92-.435 31.39-.885 46.24-.132 4.9 5.125-18.81 145.546-21.45 163.17l-23.87 163.209c-4.07 28.405-6.48 57.05-10.6 85.415-6.99 48.201-27.64 148.381-16.09 192.761 3.02 11.62 9.76 19.77 20.19 25.6 16.4 9.17 35.87 6.89 53.25 2.07 37.35-10.36 65.15-34.64 91.7-61.54 7.41-7.51 15.62-15.01 22.15-23.3 5.49-6.97 9.57-15.1 14.58-22.42 5.89-8.59 12.34-16.71 17.46-25.81 5.32-9.48 9.39-19.74 13.79-29.67 41.34-95.155 52.74-200.633 32.69-302.42-2.22-11.092-4.19-22.459-7.35-33.314-33.01-113.55-105.38-206.44-209.2-263.792-33.1-18.284-68.83-33.916-105.05-44.798-117.25-35.224-282.036-34.007-399.218.174-95.374 27.82-181.558 80.672-249.598 153.066-7.716 8.224-31.024 34.644-35.906 43.492-3.063 3.14-6.356 6.329-8.255 10.351-63.685 81.894-99.398 203.509-110.495 305.769-1.453 13.39-.243 30.225.315 43.849 1.634 39.941-3.592 85.043 1.336 124.093 14.408 114.17 59.079 224.24 135.81 310.74 9.838 11.14 23.452 27.38 34.895 36.34 9.297 10.12 14.425 14.47 25.623 22.47 26.377 21.26 54.182 41 83.998 57.24 14.682 8 30.42 16.06 45.876 22.42 6.989 2.87 14.275 4.97 21.319 7.7 14.304 5.55 28.255 11.56 42.926 16.18 108.378 34.11 230.411 42.9 343.104 30.73 25.22-2.73 51.78-5.47 76.64-10.45 14.41-2.89 28.69-7.32 42.86-11.2 93.04-25.47 180.25-67.48 251.43-133.39 7.52-6.97 46.65-51.86 50.78-53.24 8.68-2.9 35.16-.7 45.53-.64l78.94.21c13.27.03 29.74.6 42.67.01-4.81 13.85-8.93 26.69-15.44 40.1-49.83 102.67-143.05 177.35-243.08 228.08-28.9 14.66-71.39 32.76-101.97 42.09-15.9 5.54-32.68 8.8-47.75 14.02-41.75 12.71-63.03 15.91-104.77 23.28-106.89 19.6-216.257 21.62-323.796 5.99-11.575-1.71-23.062-4.37-34.574-6.37-18.255-3.27-36.623-5.82-54.634-10.41-54.117-13.65-107.549-32.65-158.365-55.66-31.853-14.43-58.947-31.86-88.276-50.3-.434-.17-.869-.34-1.303-.52-7.318-5.55-17.202-12.78-25.008-17.27-104.424-76.89-182.773-180.65-229.057-301.66-7.422-19.4-22.577-63.58-23.31-83.55-8.308 11.51-12.025 26.44-16.517 39.6-17.928 52.53-20.757 95.7-22.553 150.33 37.072 8.94 58.465 32.62 35.633 69.94 25.481 13.03 38.572 23.57 51.794 49.4 4.541 9.48 9.223 16.14 15.885 24.04 17.07 20.23 52.626 23.08 58.118 51.93 2.028 10.55-.327 21.46-6.522 30.23-7.823 11.06-22.191 19.09-35.508 21.01-30.347 4.36-46.811-12.48-68.647-27.96 3.234 16.28 3.725 30.03 8.005 48.21 9.463 40.21 56.686 103.61 1.023 130.22-12.711 6.08-27.591-2.3-39.221-7.15-4.658 2.4-10.081 12.81-14.934 15.52-34.242 19.15-57.207-1.42-75.847-25.71-2.375.37-4.757.7-7.145.98-60.5081 6.94-85.3256-97.25-88.2812-142.86-3.6207-55.87 2.7642-104.73 39.327-148.6-31.5958-34.63-13.106-65.64 24.6205-80.82 1.5106-19.22-.0585-40.22 1.3203-60.09 6.5842-94.87 35.9214-186.73 97.2394-260.73 5.475-6.61 11.423-12.49 16.166-19.69zm684.443-356.711c-15.767-.229-38.792 6.541-51.751 15.573-4.564 2.019-15.809 9.092-20.172 12.198-6.128 4.707-10.181 7.956-15.774 13.236-4.176 5.384-6.917 8.092-11.838 12.667-104.149 96.822-156.174 454.737 48.216 466.137 81.832 4.57 153.144-79.1 183.335-150.76 23.47-54.73 36.02-113.524 36.93-173.07.47-54.049-11.83-120.153-51.689-159.375-40.283-39.639-67.208-36.346-117.257-36.606z" fill="#86b45b"/><path d="m196.381 1057.65c11.908-4.28 59.518-60.176 79.641-55.96 2.504 2.44 1.845.99 2.025 4.5-.917 2.04-2.36 4.75-4.361 5.95-30.165 18.17-55.713 40.28-78.746 66.83-72.958 84.12-103.9782 195.9-101.738 305.83.6691 10.52-.7593 22.06 2.0245 32.26.3986 1.46 2.5626 2.86 3.8681 3.15 21.8404 4.84 54.3284 2.95 73.0254-10.09-4.977-103.13 16.358-211.58 88.24-289.34 6.916-7.49 27.112-29.77 36.487-30.37 3.285 1.72 2.261 1.21 4.294 5.2-.379 6.27-16.991 16.94-22.375 22.45-15.502 15.86-53.594 62.33-57.109 82.97-8.308 11.51-12.025 26.44-16.517 39.6-17.928 52.53-20.757 95.7-22.553 150.33 37.072 8.94 58.465 32.62 35.633 69.94 25.481 13.03 38.572 23.57 51.794 49.4 4.541 9.48 9.223 16.14 15.885 24.04 17.07 20.23 52.626 23.08 58.118 51.93 2.028 10.55-.327 21.46-6.522 30.23-7.823 11.06-22.191 19.09-35.508 21.01-30.347 4.36-46.811-12.48-68.647-27.96 3.234 16.28 3.725 30.03 8.005 48.21 9.463 40.21 56.686 103.61 1.023 130.22-12.711 6.08-27.591-2.3-39.221-7.15-4.658 2.4-10.081 12.81-14.934 15.52-34.242 19.15-57.207-1.42-75.847-25.71-2.375.37-4.757.7-7.145.98-60.5081 6.94-85.3256-97.25-88.2812-142.86-3.6207-55.87 2.7642-104.73 39.327-148.6-31.5958-34.63-13.106-65.64 24.6205-80.82 1.5106-19.22-.0585-40.22 1.3203-60.09 6.5842-94.87 35.9214-186.73 97.2394-260.73 5.475-6.61 11.423-12.49 16.166-19.69z"/><path d="m184.091 1402.35c38.589 7.26 41.961 47.17 8.721 64.1-6.404 3.27-18.073 6.65-17.258 14.59 7.66 10.12 27.35-6.72 34.971-11.99 47.644 24.53 39.511 41.36 71.026 76.76 16.962 19.06 77.961 30.14 39.772 70.91-8.06 8.61-22.289 10.26-33.358 9.71-26.345-1.68-43.649-23.27-57.791-43.05-1.181-1.65-3.523-1.21-5.157-.95-11.675 10.9 7.129 86.86 13.726 104.18 8.583 22.55 25.047 50.58 16.214 74.86-5.194 14.27-22.526 21.85-36.281 14.49-27.396-14.99-39.306-50.2-48.763-77.89-5.481-16.17-7.002-33.12-11.558-49.41-.773-2.76-3.313-4.42-5.769-5.29-13.174 8.75 13.933 79.74 20.165 93.78 6.817 13.28 13.129 21.72 20.198 34.05-7.681 14.84-19.658 25.36-37.175 19.98-41.692-12.95-55.531-68.66-63.8406-106.17-1.9139-8.64-2.0678-35-10.9415-37.33-8.6534 4.89-2.8116 23.25-1.7189 30.56 3.9623 26.51 12.7532 51.46 22.565 76.28 1.122 2.84 1.465 3.28.251 5.83-9.4696 1.8-19.4151-2.84-26.3585-9.13-31.6167-28.6-44.7698-83.71-47.8344-124.21-3.9495-52.19 2.8637-100.3 37.7648-141.06 8.2011 3.59 34.1648 15.24 38.2011 2.36-2.8-5.33-46.9718-10.63-51.7364-32.86-4.4169-20.6 11.4455-38.82 28.2783-43.77 4.0941 1.68.9757 9.96 6.1145 13.7 23.0926 16.82 71.8656 9.33 93.3986-7.5 4.598-3.59 4.105-10.59 4.174-15.53z" fill="#fefefe"/><path d="m1760.05 545.844c3.76-30.673 11.01-62.774 15.29-93.437 3.68-26.413 8.76-40.914 19.45-65.509 11.28-25.963 25.29-52.231 59.23-47.696 39.22 5.838 37.85 51.61 31.08 81.025-5.07 22.061-12.96 53.141-21.34 74.274 37.56-8.149 61.5 9.251 61.65 48.138 53.5-18.454 77.3 22.488 59.04 69.166-2.15 5.481-5.73 12.602-7.1 18.474-2.73 33.866-6.49 55.552-22.55 86.306-6.28 12.334-14.73 23.44-24.94 32.789-5.07 4.607-29.99 21.536-30 22.413-.34 27.184-6.45 46.89-41.99 57.738-3.75 1.125-7.52 2.203-11.3 3.233-13.36 66.768-60.63 138.568-118.07 174.702-46.85 29.47-80.16 34.94-133.31 38.87-15.49-3.34-56.97-2.01-68.3-12.98-1.37-3.69-1.27-1.86-.29-5.68 4.24-2.51 35.75 4.43 44.57 5.26 11.91 1.08 23.88 1.35 35.83.82 99.89-4.72 178.75-69.82 214.64-160.971 5.24-13.29 9.62-26.551 13.92-40.161-28.91-1.37-51.88-6.58-77.76-20.219-2.72 8.397-5.42 16.941-8.26 25.186-27.05 78.532-99.54 123.707-181.91 114.897-6.26-.669-23.37-.839-27.43-5.047-.84-3.536-.87-3.278.41-6.677 4.11-2.777 10.75-1.299 16.04-.553 21.05 2.972 43.6 2.119 64.48-2.034 47.59-12.152 77.07-30.509 102.95-74.296 10.51-18.102 18.3-37.661 23.1-58.04-26.45-20.588-47.13-48.318-20.55-80.531 1.31-1.548 2.67-3.041 4.1-4.474-5.72-7.333-16.75-20.303-20.27-28.447-11.2-25.868-16.77-56.537-12.65-84.593 6.25-42.611 17.04-60.705 62.24-61.946z"/><g fill="#fefefe"><path d="m1747.59 558.244c22.78-1.493 66.63 2.374 87.51 14.703 5.08 3.237 11.1 14.116 10.97 20.002-.75 34.473-39.36 43.012-66.99 36.454-6.84-1.621-17.23-5.523-23.06-4.91-6.91 6.15 3.8 11.335 8.97 12.876 19.26 5.744 37.31 4.671 56.94 2.104 6.93 10.311 10.87 16.09 13.94 28.31 2.17 8.6-2.15 26.414 2.03 32.205 3.47 1.721 1.72 1.456 5.35 1.138 1.59-1.168 2.78-2.855 3.08-4.795 3.91-25.46-.57-39.557-11.55-60.611 16.62 5.637 27.49 6.038 42.7-3.827 4.82 34.959 25.32 56.01 62.49 36.475 9.84-5.171 18.42-14.355 25.72-22.733-9.21 40.046-10.07 58.411-39.49 91.754-39.49 40.926-82.67 20.286-90.61 26.555-1.11.876-.91 1.616-1.13 2.895 5.1 12.669 41.87 7.857 53.56 7.194.41 26.823-9.77 38.437-36.33 44.854-44.57 10.766-159.19-28.693-114.23-90.463 7.24 6.004 32.27 28.071 42.56 23.098l.64-2.022c-1.64-7.989-11.57-11.282-18.39-16.104-34.33-24.186-55.56-64.12-54.07-106.408 1.06-30.18 3.46-62.643 39.39-68.744z"/><path d="m1845.77 349.257c27.53-1.642 34.4 30.961 30.7 52.801-5.38 31.728-15.5 67.862-27.44 97.96-2.77 6.976-18.38 19.501-23.13 27.693-4.62 7.965-7.04 15.723-11.3 23.42-2.99.991-7.06-.164-10.35-.761-10.47-1.944-22-3.294-32.62-4.745 6.63-44.685 21.36-187.066 74.14-196.368z"/><path d="m1941.15 548.262c68.61-6.07 33.49 93.963-14.81 114.423-42.32 12.856-42.51-40.898-29.5-65.862 11.2-21.513 20.56-39.329 44.31-48.561z"/><path d="m1880.34 502.291c28.85.382 33.88 23.643 34.24 47.197-24.04 30.703-24.97 32.326-37.23 69.166-10.48 6.796-15.7 10.672-28.54 10.4-1.74-.614-2.23-.926-3.88-1.776-.26-3.573 7.57-13.047 9.22-17.623 10.54-29.335-6.55-43.42-29.47-54.227 10.47-25.324 26.67-49.162 55.66-53.137z"/></g></svg>