<svg xmlns="http://www.w3.org/2000/svg" version="1" width="800" height="800" viewBox="0 0 800.000000 800.000000" preserveAspectRatio="xMidYMid meet"><metadata>
    <rdf:rdf xmlns:rdf="http://www.w3.org/1999/02/22-rdf-syntax-ns#" xmlns:rdfs="http://www.w3.org/2000/01/rdf-schema#" xmlns:dc="http://purl.org/dc/elements/1.1/">
      <rdf:description dc:format="image/svg+xml" dc:label="1" dc:contentproducer="001191330110MACRLGPT8B00000" dc:produceid="387954917" dc:reservedcode1="TGxzZotX7fGvEsFoqhY1o+P5/U76HDOJg7nGo5wzg/g=" dc:contentpropagator="001191330110MACRLGPT8B00000" dc:propagateid="387954917" dc:reservedcode2="TGxzZotX7fGvEsFoqhY1o+P5/U76HDOJg7nGo5wzg/g="></rdf:description>
    </rdf:rdf>
  </metadata><g transform="translate(133.120042,675.206263) scale(0.067993,-0.067993)" fill="#10b981" stroke="none">
    <path d="M1875 7130 c-156 -28 -284 -98 -411 -226 -78 -78 -98 -105 -142 -195 -32 -65 -60 -140 -74 -199 l-23 -95 1 -1405 c2 -1457 5 -1589 44 -1790 65 -334 128 -525 261 -790 306 -611 854 -1084 1534 -1324 405 -143 928 -185 1370 -111 407 69 809 250 1134 511 120 97 191 164 304 289 396 439 650 956 734 1495 22 143 25 477 4 625 -120 878 -644 1644 -1458 2129 -232 138 -602 265 -867 297 -159 19 -446 6 -571 -26 -372 -95 -595 -357 -595 -697 0 -288 158 -541 431 -687 94 -50 157 -70 361 -116 376 -84 583 -188 779 -391 251 -260 361 -637 294 -1009 -17 -97 -93 -296 -135 -355 -11 -15 -20 -32 -20 -37 -1 -20 -151 -192 -215 -246 -121 -102 -232 -159 -404 -208 -60 -18 -109 -23 -236 -26 -208 -5 -315 14 -504 89 -347 138 -588 432 -658 803 -16 80 -17 152 -13 660 10 1156 6 2214 -8 2305 -40 259 -139 446 -305 576 -139 109 -265 154 -442 159 -66 2 -142 0 -170 -5z m80 -209 c-6 -4 -32 -16 -59 -25 -50 -16 -146 -72 -146 -85 0 -4 16 -15 36 -25 42 -19 37 -27 -23 -44 -22 -7 -51 -21 -64 -31 l-23 -19 62 -7 c67 -8 86 -19 50 -30 -62 -19 -128 -57 -169 -97 -44 -42 -104 -148 -97 -170 2 -5 26 9 53 31 79 65 84 57 22 -32 -97 -139 -138 -234 -157 -370 -7 -49 -16 -85 -21 -80 -33 33 -36 384 -5 528 17 78 92 234 134 280 72 79 164 137 261 165 68 19 162 27 146 11z m388 -78 c26 -10 62 -30 80 -44 l32 -28 -74 6 c-73 6 -73 6 -62 -15 19 -35 56 -53 127 -62 70 -9 114 -36 114 -72 0 -17 -2 -17 -38 2 -20 11 -75 27 -121 35 -47 9 -103 26 -125 37 -91 46 -166 129 -134 149 23 15 150 10 201 -8z m-134 -217 c9 -11 10 -20 1 -35 -19 -36 -70 -21 -70 20 0 29 49 39 69 15z m247 -30 c15 -12 17 -18 8 -33 -14 -23 -41 -28 -70 -12 -23 12 -31 38 -17 52 11 12 59 7 79 -7z m-145 -87 c14 -28 -1 -44 -35 -35 -28 7 -33 25 -14 44 18 18 36 15 49 -9z m1969 -304 c406 -54 808 -236 1170 -527 570 -459 922 -1063 1026 -1758 20 -136 23 -404 5 -530 -18 -129 -61 -340 -76 -375 -13 -28 -14 -24 -8 45 4 41 7 163 7 270 1 274 -17 325 -48 137 -21 -124 -78 -283 -159 -445 -154 -307 -324 -527 -561 -725 -271 -228 -508 -339 -803 -378 -127 -16 -386 -6 -531 20 -295 55 -589 188 -811 368 -111 89 -338 323 -314 323 4 0 22 -9 38 -21 87 -59 253 -128 393 -164 377 -95 742 -31 1026 179 285 211 459 526 496 899 22 217 -22 466 -118 667 -159 337 -476 595 -867 706 -27 8 -131 32 -230 54 -151 34 -196 48 -281 90 -245 121 -384 333 -384 582 0 207 127 403 322 497 189 91 443 122 708 86z m-1673 -2834 c3 -3 8 -1 10 5 2 6 11 20 19 30 14 17 15 5 9 -126 -7 -192 -16 -283 -25 -273 -5 4 -25 53 -45 108 -55 148 -60 156 -90 145 -13 -5 -43 -27 -66 -50 -23 -22 -43 -40 -45 -40 -8 0 12 40 69 140 56 98 73 126 123 205 l19 30 7 -84 c5 -47 11 -87 15 -90z m-837 -806 c104 -155 224 -300 264 -319 19 -9 55 -16 80 -16 38 0 51 5 80 35 l35 34 11 -57 c29 -142 54 -230 74 -262 13 -19 61 -62 107 -95 46 -33 127 -99 179 -146 178 -163 269 -228 407 -290 87 -40 88 -40 38 -33 -131 18 -370 101 -490 171 -210 122 -514 434 -651 668 -23 39 -51 86 -62 105 -24 40 -152 297 -152 305 0 15 16 -5 80 -100z m4238 -356 c-36 -65 -169 -237 -266 -345 -190 -212 -416 -378 -702 -517 -347 -169 -612 -234 -980 -243 -204 -4 -205 4 -5 31 208 28 371 77 575 172 63 30 148 68 187 85 104 43 166 102 192 181 11 34 23 87 27 118 l6 56 67 -34 c60 -32 72 -35 131 -31 48 4 83 14 136 41 121 61 371 257 552 433 54 51 98 93 100 94 2 0 -7 -18 -20 -41z"></path>
    <path d="M4278 6110 c-41 -25 -9 -80 46 -80 35 0 56 15 56 41 0 34 -68 60 -102 39z"></path>
    <path d="M3905 6087 c-53 -45 3 -80 73 -45 26 13 30 53 6 62 -29 11 -53 6 -79 -17z"></path>
    <path d="M4090 6022 c-72 -35 -43 -82 50 -82 62 0 90 18 90 58 0 43 -77 56 -140 24z"></path>
  </g><style>@media (prefers-color-scheme: light) { :root { filter: none; } }
@media (prefers-color-scheme: dark) { :root { filter: none; } }
</style></svg>