<svg xmlns="http://www.w3.org/2000/svg" version="1.1" xmlns:xlink="http://www.w3.org/1999/xlink" width="300" height="300"><svg xmlns="http://www.w3.org/2000/svg" version="1.1" xmlns:xlink="http://www.w3.org/1999/xlink" width="300" height="300"><svg xmlns="http://www.w3.org/2000/svg" width="300" height="300" version="1.0" viewBox="0 0 224.88 225"><defs><clipPath id="a"><path d="M0 .059h224.762v224.879H0Zm0 0"></path></clipPath><clipPath id="b"><path d="M54.723.059H170.16A54.72 54.72 0 0 1 224.88 54.78V170.22a54.72 54.72 0 0 1-54.719 54.723H54.723A54.72 54.72 0 0 1 0 170.218V54.78A54.721 54.721 0 0 1 54.723.058m0 0"></path></clipPath><clipPath id="d"><path d="M0 .059h224.762v224.879H0Zm0 0"></path></clipPath><clipPath id="e"><path d="M54.723.059H170.16A54.72 54.72 0 0 1 224.88 54.78V170.22a54.72 54.72 0 0 1-54.719 54.723H54.723A54.72 54.72 0 0 1 0 170.218V54.78A54.721 54.721 0 0 1 54.723.058m0 0"></path></clipPath><clipPath id="c"><path d="M0 0h225v225H0z"></path></clipPath><clipPath id="g"><path d="M0 0h171v116H0z"></path></clipPath><linearGradient id="f" x1="0" x2="255.863" y1="128" y2="128" gradientTransform="matrix(.87844 0 0 .87844 0 .06)" gradientUnits="userSpaceOnUse"><stop offset="0" stop-color="#0097B2"></stop><stop offset=".008" stop-color="#0097B2"></stop><stop offset=".016" stop-color="#0198B1"></stop><stop offset=".023" stop-color="#0298B0"></stop><stop offset=".031" stop-color="#0399AF"></stop><stop offset=".039" stop-color="#0499AF"></stop><stop offset=".047" stop-color="#059AAE"></stop><stop offset=".055" stop-color="#069AAD"></stop><stop offset=".063" stop-color="#079BAD"></stop><stop offset=".07" stop-color="#089BAC"></stop><stop offset=".078" stop-color="#099CAB"></stop><stop offset=".086" stop-color="#0A9CAB"></stop><stop offset=".094" stop-color="#0B9DAA"></stop><stop offset=".102" stop-color="#0C9DA9"></stop><stop offset=".109" stop-color="#0D9EA8"></stop><stop offset=".117" stop-color="#0E9EA8"></stop><stop offset=".125" stop-color="#0F9FA7"></stop><stop offset=".133" stop-color="#10A0A6"></stop><stop offset=".141" stop-color="#11A0A6"></stop><stop offset=".148" stop-color="#12A1A5"></stop><stop offset=".156" stop-color="#13A1A4"></stop><stop offset=".164" stop-color="#14A2A3"></stop><stop offset=".172" stop-color="#15A2A3"></stop><stop offset=".18" stop-color="#16A3A2"></stop><stop offset=".188" stop-color="#17A3A1"></stop><stop offset=".195" stop-color="#18A4A1"></stop><stop offset=".203" stop-color="#19A4A0"></stop><stop offset=".211" stop-color="#1AA59F"></stop><stop offset=".219" stop-color="#1BA59E"></stop><stop offset=".227" stop-color="#1CA69E"></stop><stop offset=".234" stop-color="#1DA69D"></stop><stop offset=".242" stop-color="#1EA79C"></stop><stop offset=".25" stop-color="#1FA79C"></stop><stop offset=".258" stop-color="#20A89B"></stop><stop offset=".266" stop-color="#21A89A"></stop><stop offset=".273" stop-color="#22A999"></stop><stop offset=".281" stop-color="#23A999"></stop><stop offset=".289" stop-color="#24AA98"></stop><stop offset=".297" stop-color="#25AA97"></stop><stop offset=".305" stop-color="#26AB97"></stop><stop offset=".313" stop-color="#27AB96"></stop><stop offset=".32" stop-color="#28AC95"></stop><stop offset=".328" stop-color="#29AC95"></stop><stop offset=".336" stop-color="#2AAD94"></stop><stop offset=".344" stop-color="#2BAD93"></stop><stop offset=".352" stop-color="#2CAE92"></stop><stop offset=".359" stop-color="#2DAE92"></stop><stop offset=".367" stop-color="#2EAF91"></stop><stop offset=".375" stop-color="#2FAF90"></stop><stop offset=".383" stop-color="#30B090"></stop><stop offset=".391" stop-color="#31B18F"></stop><stop offset=".398" stop-color="#32B18E"></stop><stop offset=".406" stop-color="#33B28D"></stop><stop offset=".414" stop-color="#34B28D"></stop><stop offset=".422" stop-color="#35B38C"></stop><stop offset=".43" stop-color="#36B38B"></stop><stop offset=".438" stop-color="#37B48B"></stop><stop offset=".445" stop-color="#38B48A"></stop><stop offset=".453" stop-color="#39B589"></stop><stop offset=".461" stop-color="#3AB588"></stop><stop offset=".469" stop-color="#3BB688"></stop><stop offset=".477" stop-color="#3CB687"></stop><stop offset=".484" stop-color="#3DB786"></stop><stop offset=".492" stop-color="#3DB786"></stop><stop offset=".5" stop-color="#3EB885"></stop><stop offset=".508" stop-color="#3FB884"></stop><stop offset=".516" stop-color="#40B983"></stop><stop offset=".523" stop-color="#41B983"></stop><stop offset=".531" stop-color="#42BA82"></stop><stop offset=".539" stop-color="#43BA81"></stop><stop offset=".547" stop-color="#44BB81"></stop><stop offset=".555" stop-color="#45BB80"></stop><stop offset=".563" stop-color="#46BC7F"></stop><stop offset=".57" stop-color="#47BC7E"></stop><stop offset=".578" stop-color="#48BD7E"></stop><stop offset=".586" stop-color="#49BD7D"></stop><stop offset=".594" stop-color="#4ABE7C"></stop><stop offset=".602" stop-color="#4BBE7C"></stop><stop offset=".609" stop-color="#4CBF7B"></stop><stop offset=".617" stop-color="#4DBF7A"></stop><stop offset=".625" stop-color="#4EC07A"></stop><stop offset=".633" stop-color="#4FC079"></stop><stop offset=".641" stop-color="#50C178"></stop><stop offset=".648" stop-color="#51C277"></stop><stop offset=".656" stop-color="#52C277"></stop><stop offset=".664" stop-color="#53C376"></stop><stop offset=".672" stop-color="#54C375"></stop><stop offset=".68" stop-color="#55C475"></stop><stop offset=".688" stop-color="#56C474"></stop><stop offset=".695" stop-color="#57C573"></stop><stop offset=".703" stop-color="#58C572"></stop><stop offset=".711" stop-color="#59C672"></stop><stop offset=".719" stop-color="#5AC671"></stop><stop offset=".727" stop-color="#5BC770"></stop><stop offset=".734" stop-color="#5CC770"></stop><stop offset=".742" stop-color="#5DC86F"></stop><stop offset=".75" stop-color="#5EC86E"></stop><stop offset=".758" stop-color="#5FC96D"></stop><stop offset=".766" stop-color="#60C96D"></stop><stop offset=".773" stop-color="#61CA6C"></stop><stop offset=".781" stop-color="#62CA6B"></stop><stop offset=".789" stop-color="#63CB6B"></stop><stop offset=".797" stop-color="#64CB6A"></stop><stop offset=".805" stop-color="#65CC69"></stop><stop offset=".813" stop-color="#66CC68"></stop><stop offset=".82" stop-color="#67CD68"></stop><stop offset=".828" stop-color="#68CD67"></stop><stop offset=".836" stop-color="#69CE66"></stop><stop offset=".844" stop-color="#6ACE66"></stop><stop offset=".852" stop-color="#6BCF65"></stop><stop offset=".859" stop-color="#6CCF64"></stop><stop offset=".867" stop-color="#6DD063"></stop><stop offset=".875" stop-color="#6ED063"></stop><stop offset=".883" stop-color="#6FD162"></stop><stop offset=".891" stop-color="#70D161"></stop><stop offset=".898" stop-color="#71D261"></stop><stop offset=".906" stop-color="#72D360"></stop><stop offset=".914" stop-color="#73D35F"></stop><stop offset=".922" stop-color="#74D45F"></stop><stop offset=".93" stop-color="#75D45E"></stop><stop offset=".938" stop-color="#76D55D"></stop><stop offset=".945" stop-color="#77D55C"></stop><stop offset=".953" stop-color="#78D65C"></stop><stop offset=".961" stop-color="#79D65B"></stop><stop offset=".969" stop-color="#79D75A"></stop><stop offset=".977" stop-color="#7AD75A"></stop><stop offset=".984" stop-color="#7BD859"></stop><stop offset=".992" stop-color="#7CD858"></stop><stop offset="1" stop-color="#7DD957"></stop></linearGradient></defs><g clip-path="url(#a)"><g clip-path="url(#b)"><g clip-path="url(#c)"><g clip-path="url(#d)"><g clip-path="url(#e)"><path fill="url(#f)" d="M0 .059V224.94h224.762V.06Zm0 0"></path></g></g></g></g></g><g fill="#fff" clip-path="url(#g)" transform="translate(27 54)"><path d="M8.07 89.507V26.929h39.657v12.515h-24.61v11.594h20.907v12.594H23.118v13.281h25.53v12.594ZM86.783 90.679q-8.485.001-14.954-3.907-6.468-3.902-10.078-11.25-3.61-7.359-3.61-17.593 0-10.248 3.61-17.438 3.61-7.184 10.078-10.922 6.469-3.733 14.954-3.734 8.562.001 14.984 3.781 6.435 3.785 10.047 10.922 3.61 7.143 3.61 17.39 0 10.236-3.61 17.594c-2.406 4.899-5.758 8.649-10.047 11.25q-6.422 3.908-14.984 3.907m0-12.938c4.144 0 7.406-1.789 9.78-5.375q3.578-5.373 3.579-14.437-.002-9.076-3.578-14.157c-2.375-3.382-5.637-5.078-9.781-5.078-4.094 0-7.336 1.696-9.72 5.078q-3.561 5.08-3.562 14.157 0 9.064 3.563 14.437c2.383 3.586 5.625 5.375 9.719 5.375M127.003 89.507V26.929h15.047v49.984h24.36v12.594Zm0 0"></path></g></svg></svg><style>@media (prefers-color-scheme: light) { :root { filter: none; } }
@media (prefers-color-scheme: dark) { :root { filter: none; } }
</style></svg>