<?xml version="1.0" standalone="no"?><!DOCTYPE svg PUBLIC "-//W3C//DTD SVG 1.1//EN" "http://www.w3.org/Graphics/SVG/1.1/DTD/svg11.dtd"><svg t="1779028347992" class="icon" viewBox="0 0 1024 1024" version="1.1" xmlns="http://www.w3.org/2000/svg" p-id="11264" xmlns:xlink="http://www.w3.org/1999/xlink" width="356" height="356"><path d="M512 224c131.2 0 236.8 99.2 252.8 224h3.2c35.2 0 64 28.8 64 64v64c0 35.2-28.8 64-64 64v96c0 35.2-25.6 60.8-60.8 64h-243.2c-25.6 0-48-22.4-48-48s22.4-48 48-48h96c22.4 0 38.4 12.8 44.8 32H704v-256c0-105.6-86.4-192-192-192-102.4 0-188.8 83.2-192 185.6V608c0 19.2-12.8 32-32 32H256c-35.2 0-64-28.8-64-64v-64c0-35.2 28.8-64 64-64h3.2c16-124.8 121.6-224 252.8-224z m0 160c12.8 0 25.6 3.2 38.4 6.4-22.4 9.6-38.4 32-38.4 57.6 0 35.2 28.8 64 64 64 25.6 0 48-16 57.6-38.4 3.2 12.8 6.4 25.6 6.4 38.4 0 70.4-57.6 128-128 128s-128-57.6-128-128 57.6-128 128-128z" fill="#202425" p-id="11265"></path></svg>