<svg xmlns="http://www.w3.org/2000/svg" version="1.1" xmlns:xlink="http://www.w3.org/1999/xlink" t="1773626850668" class="icon" viewBox="0 0 1024 1024" p-id="6071" width="256" height="256"><path d="M171.731669 439.313573c-9.585023 47.925117-14.377535 97.447738-12.780031 145.372854 1.597504 47.925117 11.182527 95.850234 25.560062 140.580344 15.975039 44.730109 36.74259 87.862715 63.900156 129.397816 12.780031 20.767551 27.157566 39.937598 43.132606 59.107644 15.975039 19.170047 31.950078 36.74259 49.522621 54.315132-20.767551-12.780031-39.937598-28.75507-57.510141-46.327613-17.572543-17.572543-35.145086-36.74259-49.522621-55.912636-30.352574-39.937598-54.315133-84.667707-70.290171-132.592824-15.975039-47.925117-23.962559-99.045242-22.365055-148.567863 1.597504-51.120125 11.182527-100.642746 30.352574-145.372854m648.586584 7.987519c-51.120125 28.75507-100.642746 60.705148-146.970359 95.850234-46.327613 35.145086-89.460218 75.082683-127.800312 118.215289-38.340094 43.132605-73.485179 89.460218-102.24025 138.982839-14.377535 25.560062-28.75507 51.120125-39.937597 76.680187-12.780031 27.157566-22.365055 54.315133-31.950078 81.472699 3.195008-28.75507 11.182527-57.51014 20.76755-86.265211 9.585023-28.75507 20.767551-55.912637 35.145086-81.472698 27.157566-52.717629 62.302652-102.24025 102.24025-146.970359 39.937598-44.730109 84.667707-83.070203 134.190328-116.617785 49.522621-31.950078 102.24025-60.705148 156.555382-79.875195" fill="#75A843" p-id="6072"></path><path d="M456.087363 234.833073c-23.962559 28.75507-65.49766 19.170047-65.497659 19.170047s-15.975039-39.937598 6.390015-68.692668c23.962559-28.75507 79.875195-36.74259 79.875195-36.742589s1.597504 59.107644-20.767551 86.26521m-84.667706 6.390016c6.390016 28.75507-19.170047 51.120125-19.170047 51.120125s-33.547582-9.585023-41.535101-38.340094c-6.390016-28.75507 15.975039-70.290172 15.975039-70.290171s36.74259 28.75507 44.730109 57.51014M416.149766 321.098284c-28.75507 6.390016-51.120125-19.170047-51.120125-19.170047s9.585023-33.547582 38.340094-41.535101 70.290172 15.975039 70.290171 15.975039-28.75507 36.74259-57.51014 44.730109m-92.655226-7.98752c9.585023 27.157566-12.780031 54.315133-12.780031 54.315133s-35.145086-4.792512-44.73011-31.950078c-9.585023-27.157566 6.390016-71.887676 6.390016-71.887675s41.535101 22.365055 51.120125 49.52262m54.315132 73.48518c-27.157566 9.585023-54.315133-12.780031-54.315132-12.780031s4.792512-35.145086 31.950078-44.73011c27.157566-9.585023 71.887676 6.390016 71.887675 6.390016s-22.365055 41.535101-49.522621 51.120125m-86.26521 3.195008c14.377535 27.157566-7.98752 57.51014-7.98752 57.51014s-36.74259-1.597504-51.120125-28.75507c-14.377535-27.157566 0-75.082683 0-75.082683s46.327613 17.572543 59.107645 46.327613m63.900156 70.290171c-27.157566 14.377535-57.51014-7.98752-57.510141-7.987519s1.597504-36.74259 28.755071-51.120125c27.157566-14.377535 75.082683 0 75.082683 0s-17.572543 44.730109-46.327613 59.107644M262.789392 479.25117c19.170047 27.157566 1.597504 63.900156 1.597503 63.900156s-39.937598 6.390016-59.107644-22.365055c-19.170047-27.157566-14.377535-81.472699-14.377535-81.472698s52.717629 12.780031 71.887676 39.937597m83.070202 65.49766c-27.157566 19.170047-63.900156 1.597504-63.900156 1.597504s-6.390016-39.937598 22.365055-59.107644 81.472699-14.377535 81.472699-14.377536-12.780031 51.120125-39.937598 71.887676m-100.642745 41.535101c23.962559 25.560062 9.585023 67.095164 9.585023 67.095164s-41.535101 11.182527-65.49766-14.377535-25.560062-83.070203-25.560062-83.070203 57.51014 3.195008 81.472699 30.352574m94.25273 55.912637c-25.560062 23.962559-67.095164 9.585023-67.095164 9.585023s-11.182527-41.535101 14.377535-65.49766 83.070203-25.560062 83.070203-25.560062-3.195008 57.51014-30.352574 81.472699" fill="#F4BC58" p-id="6073"></path><path d="M392.187207 252.405616c-39.937598 49.522621-68.692668 107.032761-86.26521 166.140406-7.98752 30.352574-15.975039 60.705148-20.767551 91.057722-4.792512 30.352574-7.98752 62.302652-9.585023 94.25273-1.597504 31.950078-1.597504 62.302652-1.597504 94.25273 0 31.950078 3.195008 62.302652 4.792512 94.25273 3.195008 31.950078 6.390016 62.302652 11.182527 94.252731 4.792512 31.950078 9.585023 62.302652 15.975039 94.25273-9.585023-30.352574-17.572543-60.705148-23.962559-92.655227-6.390016-30.352574-12.780031-62.302652-15.975039-94.25273-4.792512-31.950078-6.390016-63.900156-7.987519-95.850234-1.597504-31.950078-1.597504-63.900156 0-95.850234s4.792512-63.900156 11.182527-95.850234c6.390016-31.950078 12.780031-62.302652 23.962559-92.655226 9.585023-30.352574 23.962559-59.107644 39.937597-87.862714 15.975039-25.560062 35.145086-51.120125 59.107644-73.48518" fill="#F4BC58" p-id="6074"></path><path d="M826.708268 138.982839c-38.340094 27.157566-89.460218 1.597504-89.460218 1.597504s-6.390016-55.912637 31.950078-83.070203c38.340094-27.157566 113.422777-19.170047 113.422777-19.170046S865.048362 111.825273 826.708268 138.982839M719.675507 118.215289c-1.597504 38.340094-43.132605 57.51014-43.132605 57.51014s-39.937598-22.365055-38.340094-60.705148C639.800312 76.680187 681.335413 31.950078 681.335413 31.950078s39.937598 47.925117 38.340094 86.265211" fill="#FFCC66" p-id="6075"></path><path d="M748.430577 231.638066c-38.340094-1.597504-57.51014-43.132605-57.51014-43.132606s22.365055-39.937598 60.705148-38.340093c38.340094 1.597504 83.070203 43.132605 83.070203 43.132605s-47.925117 39.937598-86.265211 38.340094M635.0078 191.700468c3.195008 38.340094-35.145086 62.302652-35.145085 62.302652s-41.535101-17.572543-46.327614-55.912636c-3.195008-38.340094 31.950078-87.862715 31.950078-87.862715s46.327613 43.132605 49.522621 81.472699m43.132606 110.227769c-38.340094 3.195008-62.302652-35.145086-62.302652-35.145086s17.572543-41.535101 55.912636-46.327613c38.340094-3.195008 87.862715 31.950078 87.862715 31.950078s-43.132605 46.327613-81.472699 49.522621m-108.630266-25.560062c7.98752 39.937598-30.352574 68.692668-30.352574 68.692667s-46.327613-14.377535-52.717628-52.717628c-7.98752-39.937598 23.962559-94.25273 23.962558-94.25273s51.120125 38.340094 59.107644 78.277691m55.912637 110.227769c-39.937598 7.98752-68.692668-30.352574-68.692668-30.352574s14.377535-46.327613 52.717629-52.717629c39.937598-7.98752 94.25273 23.962559 94.25273 23.962559s-38.340094 51.120125-78.277691 59.107644m-123.0078-6.390016c15.975039 41.535101-19.170047 79.875195-19.170047 79.875195s-51.120125-6.390016-67.095164-47.925117 9.585023-107.032761 9.585023-107.032761 62.302652 33.547582 76.680188 75.082683m81.472699 108.630265c-41.535101 15.975039-79.875195-19.170047-79.875196-19.170046s6.390016-51.120125 47.925118-67.095164 107.032761 9.585023 107.032761 9.585023-33.547582 60.705148-75.082683 76.680187m-138.98284 17.572543c22.365055 41.535101-9.585023 86.265211-9.585023 86.265211s-55.912637 0-76.680187-41.535101-3.195008-113.422777-3.195008-113.422777 67.095164 27.157566 89.460218 68.692667m99.045242 103.837754c-41.535101 22.365055-86.265211-9.585023-86.265211-9.585024s0-55.912637 41.535102-76.680187c41.535101-22.365055 113.422777-3.195008 113.422777-3.195008s-27.157566 67.095164-68.692668 89.460219" fill="#FFCC66" p-id="6076"></path><path d="M742.040562 140.580343c-67.095164 47.925117-121.410296 110.227769-164.542902 178.920437-20.767551 35.145086-39.937598 70.290172-55.912637 108.630265-15.975039 36.74259-30.352574 75.082683-43.132605 113.422777-12.780031 38.340094-23.962559 78.277691-33.547582 118.215289-9.585023 39.937598-17.572543 79.875195-25.560062 119.812792-6.390016 39.937598-12.780031 81.472699-19.170047 121.410297-4.792512 39.937598-9.585023 81.472699-12.780031 123.0078-1.597504-41.535101-1.597504-83.070203 1.597504-123.0078 3.195008-41.535101 6.390016-83.070203 11.182527-123.007801 4.792512-41.535101 12.780031-81.472699 22.365055-121.410296 9.585023-39.937598 19.170047-79.875195 31.950078-119.812793s28.75507-78.277691 46.327613-116.617784c17.572543-38.340094 38.340094-73.485179 60.705148-108.630265 23.962559-35.145086 49.522621-67.095164 79.875195-95.850234 30.352574-30.352574 63.900156-55.912637 100.642746-75.082684" fill="#FFCC66" p-id="6077"></path><path d="M630.215289 631.014041c-39.937598 7.98752-78.277691 19.170047-113.422777 35.145085-35.145086 15.975039-67.095164 38.340094-95.850234 65.49766-27.157566 27.157566-49.522621 59.107644-68.692668 94.25273-9.585023 17.572543-17.572543 35.145086-23.962559 54.315133-6.390016 19.170047-12.780031 38.340094-17.572542 57.51014 0-20.767551 1.597504-39.937598 6.390015-60.705148 4.792512-19.170047 9.585023-39.937598 17.572543-59.107644 15.975039-38.340094 38.340094-73.485179 68.692668-102.24025 30.352574-28.75507 65.49766-51.120125 105.435257-65.49766 39.937598-14.377535 81.472699-20.767551 121.410297-19.170046" fill="#83BF4F" p-id="6078"></path><style>@media (prefers-color-scheme: light) { :root { filter: none; } }
@media (prefers-color-scheme: dark) { :root { filter: none; } }
</style></svg>