<?xml version="1.0" standalone="no"?><!DOCTYPE svg PUBLIC "-//W3C//DTD SVG 1.1//EN" "http://www.w3.org/Graphics/SVG/1.1/DTD/svg11.dtd"><svg t="1750256457939" class="icon" viewBox="0 0 1024 1024" version="1.1" xmlns="http://www.w3.org/2000/svg" p-id="6587" width="192" height="192" xmlns:xlink="http://www.w3.org/1999/xlink"><path d="M960 39H64C25.6 39 0 64.595 0 102.986v819.028C0 960.405 25.6 986 64 986h896c38.4 0 64-25.595 64-63.986V102.986C1024 64.595 998.4 39 960 39zM192 858V719h64v139h-64z m192 0V719h64v139h-64z m192 0V719h64v139h-64z m192 0V719h64v139h-64z m1-458.903c0-38.342-25.6-63.904-64-63.904H321c-38.4 0-64 25.562-64 63.904V463H129V167h768v296H769v-63.903z" fill="#2563eb" p-id="6588" data-spm-anchor-id="a313x.search_index.0.i0.4bc03a81h2VAJo" class="selected"></path></svg>