<svg xmlns="http://www.w3.org/2000/svg" version="1" width="500" viewBox="0 0 375 375" height="500"><metadata><rdf:RDF xmlns:rdf="http://www.w3.org/1999/02/22-rdf-syntax-ns#" xmlns:dc="http://purl.org/dc/elements/1.1/"><rdf:Description><dc:creator>RealFaviconGenerator</dc:creator><dc:source>https://realfavicongenerator.net</dc:source></rdf:Description></rdf:RDF></metadata><defs><clipPath id="c"><path d="M110.469.797h180.91v180.906h-180.91Zm0 0"></path></clipPath><clipPath id="d"><path d="M.04.64H183V184H.04Zm0 0"></path></clipPath><clipPath id="g"><path d="M.258.797h180.91v180.906H.258Zm0 0"></path></clipPath><clipPath id="f"><path d="M0 0h183v184H0z"></path></clipPath><clipPath id="h"><path d="M56 91h183v183.238H56Zm0 0"></path></clipPath><clipPath id="k"><path d="M.344.934h180.91V181.84H.344Zm0 0"></path></clipPath><clipPath id="j"><path d="M0 0h183v184H0z"></path></clipPath><clipPath id="b"><path d="M0 0h293v275H0z"></path></clipPath><mask id="e"><g filter="url(#a)"><path fill-opacity=".69" d="M-123.5-132.5h540v540h-540z"></path></g></mask><mask id="i"><g filter="url(#a)"><path fill-opacity=".59" d="M-123.5-132.5h540v540h-540z"></path></g></mask><filter x="0%" y="0%" width="100%" height="100%" id="a"><feColorMatrix values="0 0 0 0 1 0 0 0 0 1 0 0 0 0 1 0 0 0 1 0" color-interpolation-filters="sRGB"></feColorMatrix></filter></defs><g clip-path="url(#b)" transform="translate(41 50)"><g clip-path="url(#c)"><path fill="#ffd9c2" d="M292.738 91.93c0 1.492-.035 2.984-.11 4.472a94.733 94.733 0 0 1-.327 4.461 94.394 94.394 0 0 1-1.313 8.848 91.49 91.49 0 0 1-2.176 8.676 85.66 85.66 0 0 1-1.402 4.246 92.993 92.993 0 0 1-1.61 4.176 92.784 92.784 0 0 1-1.812 4.086 93.08 93.08 0 0 1-4.215 7.89 94.718 94.718 0 0 1-2.394 3.778 89.003 89.003 0 0 1-2.574 3.656 92.79 92.79 0 0 1-2.754 3.527 88.952 88.952 0 0 1-2.922 3.387 89.287 89.287 0 0 1-3.082 3.238 92.605 92.605 0 0 1-6.629 6.008 92.787 92.787 0 0 1-3.527 2.754 89.004 89.004 0 0 1-3.657 2.574 94.716 94.716 0 0 1-3.777 2.395 93.08 93.08 0 0 1-7.887 4.214 95.025 95.025 0 0 1-4.09 1.813 92.994 92.994 0 0 1-4.175 1.61c-1.403.503-2.82.968-4.246 1.402a90.202 90.202 0 0 1-13.082 2.937 89.47 89.47 0 0 1-4.442.547 89.432 89.432 0 0 1-8.933.441 89.432 89.432 0 0 1-8.93-.441 92.652 92.652 0 0 1-8.848-1.309 90.201 90.201 0 0 1-8.676-2.176 89.944 89.944 0 0 1-4.246-1.402 92.994 92.994 0 0 1-4.175-1.61 95.025 95.025 0 0 1-4.09-1.812 93.08 93.08 0 0 1-7.887-4.215 94.717 94.717 0 0 1-3.777-2.394 89.004 89.004 0 0 1-3.657-2.574 92.788 92.788 0 0 1-3.527-2.754 92.604 92.604 0 0 1-6.629-6.008 89.287 89.287 0 0 1-3.082-3.238 88.952 88.952 0 0 1-2.922-3.387 92.79 92.79 0 0 1-2.754-3.527 89.002 89.002 0 0 1-2.574-3.656 94.716 94.716 0 0 1-2.394-3.778 93.08 93.08 0 0 1-4.215-7.89 92.784 92.784 0 0 1-1.813-4.086 88.503 88.503 0 0 1-1.61-4.176 85.66 85.66 0 0 1-1.401-4.246 91.49 91.49 0 0 1-2.176-8.676 94.4 94.4 0 0 1-1.313-8.848 94.734 94.734 0 0 1-.328-4.46 89.824 89.824 0 0 1-.11-4.473c0-1.489.036-2.98.11-4.47a89.493 89.493 0 0 1 .879-8.902c.219-1.476.473-2.945.762-4.406a91.482 91.482 0 0 1 2.176-8.675c.43-1.43.898-2.844 1.402-4.247a90.927 90.927 0 0 1 10.031-19.93 91.89 91.89 0 0 1 2.574-3.66 95.862 95.862 0 0 1 2.754-3.523 86.026 86.026 0 0 1 2.922-3.387 89.4 89.4 0 0 1 3.082-3.242 89.4 89.4 0 0 1 3.242-3.082 88.953 88.953 0 0 1 3.387-2.922 88.983 88.983 0 0 1 3.527-2.754 89.004 89.004 0 0 1 3.657-2.574 90.479 90.479 0 0 1 3.777-2.394 93.08 93.08 0 0 1 7.887-4.215 95.027 95.027 0 0 1 4.09-1.813c1.378-.57 2.77-1.109 4.175-1.609a89.995 89.995 0 0 1 4.246-1.406A91.48 91.48 0 0 1 188.23 1.78a94.373 94.373 0 0 1 4.442-.547 94.35 94.35 0 0 1 4.46-.328c1.49-.074 2.981-.11 4.47-.11 1.492 0 2.984.036 4.472.11a94.35 94.35 0 0 1 4.461.328c1.485.149 2.965.329 4.442.547a91.48 91.48 0 0 1 13.082 2.938c1.425.433 2.843.902 4.246 1.406 1.406.5 2.797 1.04 4.175 1.61a95.027 95.027 0 0 1 4.09 1.812 93.08 93.08 0 0 1 7.887 4.215 90.478 90.478 0 0 1 3.777 2.394 89.004 89.004 0 0 1 3.657 2.574c1.199.891 2.375 1.805 3.527 2.754a88.954 88.954 0 0 1 3.387 2.922 89.4 89.4 0 0 1 3.242 3.082 89.4 89.4 0 0 1 3.082 3.242 86.026 86.026 0 0 1 2.922 3.387 95.862 95.862 0 0 1 2.754 3.524 91.891 91.891 0 0 1 2.574 3.66 94.718 94.718 0 0 1 2.394 3.777 90.953 90.953 0 0 1 9.04 20.398 90.2 90.2 0 0 1 2.937 13.083c.219 1.476.402 2.957.55 4.441.145 1.484.255 2.969.329 4.46.074 1.49.11 2.981.11 4.47Zm0 0"></path></g><g mask="url(#e)" clip-path="url(#d)"><g clip-path="url(#f)"><g clip-path="url(#g)"><path fill="#fff3c2" d="M182.527 91.93c0 1.492-.035 2.984-.109 4.472a85.299 85.299 0 0 1-.328 4.461 89.472 89.472 0 0 1-1.313 8.848 91.448 91.448 0 0 1-2.172 8.676 94.682 94.682 0 0 1-1.402 4.246 88.559 88.559 0 0 1-1.613 4.176 88.39 88.39 0 0 1-1.813 4.086 86.736 86.736 0 0 1-2.007 3.996 93.16 93.16 0 0 1-2.208 3.894 90.393 90.393 0 0 1-4.968 7.434 88.888 88.888 0 0 1-2.75 3.527 96.568 96.568 0 0 1-2.922 3.387 92.915 92.915 0 0 1-6.324 6.324 92.604 92.604 0 0 1-3.387 2.922 92.788 92.788 0 0 1-3.527 2.754 94.688 94.688 0 0 1-3.657 2.574 90.51 90.51 0 0 1-11.668 6.61 90.927 90.927 0 0 1-12.511 4.824 91.337 91.337 0 0 1-4.309 1.195c-1.45.36-2.902.687-4.363.98-1.465.29-2.934.543-4.41.762a88.748 88.748 0 0 1-4.438.547 89.781 89.781 0 0 1-8.933.441 89.78 89.78 0 0 1-8.934-.441 88.748 88.748 0 0 1-4.438-.547 93.678 93.678 0 0 1-4.41-.762 98.982 98.982 0 0 1-4.363-.98 92.818 92.818 0 0 1-8.559-2.598 90.927 90.927 0 0 1-19.93-10.031 94.688 94.688 0 0 1-3.656-2.574 92.787 92.787 0 0 1-3.527-2.754 92.604 92.604 0 0 1-3.387-2.922 92.915 92.915 0 0 1-6.324-6.324 92.604 92.604 0 0 1-2.922-3.387 88.888 88.888 0 0 1-2.75-3.527 89.09 89.09 0 0 1-4.968-7.434 90.925 90.925 0 0 1-9.043-20.398 86.96 86.96 0 0 1-1.192-4.313 87.917 87.917 0 0 1-.98-4.363 89.552 89.552 0 0 1-1.313-8.848 85.296 85.296 0 0 1-.328-4.46 89.826 89.826 0 0 1-.113-4.473c0-1.489.039-2.98.113-4.47.07-1.491.18-2.976.328-4.46a89.47 89.47 0 0 1 1.313-8.848c.289-1.465.617-2.918.98-4.363.36-1.45.758-2.887 1.192-4.312.433-1.43.902-2.844 1.402-4.247a92.995 92.995 0 0 1 1.61-4.175 95.58 95.58 0 0 1 1.812-4.09 95.496 95.496 0 0 1 2.012-3.996 91.15 91.15 0 0 1 2.207-3.89 90.393 90.393 0 0 1 4.968-7.438 91.7 91.7 0 0 1 5.672-6.91 93.034 93.034 0 0 1 3.086-3.243 89.287 89.287 0 0 1 3.238-3.082 88.954 88.954 0 0 1 3.387-2.922 88.982 88.982 0 0 1 3.527-2.754 90.611 90.611 0 0 1 11.328-7.172 90.954 90.954 0 0 1 12.258-5.433 91.51 91.51 0 0 1 4.246-1.406c1.43-.43 2.868-.828 4.313-1.192a93.682 93.682 0 0 1 4.363-.98 93.706 93.706 0 0 1 4.41-.766 93.577 93.577 0 0 1 4.438-.547 94.734 94.734 0 0 1 4.46-.328 89.94 89.94 0 0 1 4.474-.11c1.492 0 2.98.036 4.472.11 1.488.074 2.977.184 4.461.328 1.484.149 2.965.329 4.438.547 1.476.219 2.945.477 4.41.766 1.46.293 2.914.617 4.363.98a90.144 90.144 0 0 1 8.559 2.598 90.928 90.928 0 0 1 19.93 10.031 94.688 94.688 0 0 1 3.656 2.574c1.199.891 2.375 1.805 3.527 2.754a88.953 88.953 0 0 1 3.387 2.922c1.105 1 2.183 2.028 3.238 3.082a93.034 93.034 0 0 1 3.086 3.242 91.7 91.7 0 0 1 8.25 10.57 90.393 90.393 0 0 1 2.39 3.778 95.588 95.588 0 0 1 2.208 3.89 90.881 90.881 0 0 1 2.007 3.997 90.99 90.99 0 0 1 1.817 4.09 92.995 92.995 0 0 1 1.61 4.175 90.164 90.164 0 0 1 2.594 8.559c.362 1.445.69 2.898.98 4.363.292 1.461.546 2.93.765 4.407.219 1.476.402 2.957.547 4.441.148 1.484.258 2.969.328 4.46.074 1.49.11 2.981.11 4.47Zm0 0"></path></g></g></g><g mask="url(#i)" clip-path="url(#h)"><g clip-path="url(#j)" transform="translate(56 91)"><g clip-path="url(#k)"><path fill="#ffc2e8" d="M182.613 92.066c0 1.493-.035 2.985-.11 4.473a94.733 94.733 0 0 1-.327 4.461 93.577 93.577 0 0 1-.547 4.438 93.707 93.707 0 0 1-.766 4.41 92.568 92.568 0 0 1-2.172 8.675 91.51 91.51 0 0 1-3.015 8.418 90.927 90.927 0 0 1-8.422 15.758 94.69 94.69 0 0 1-2.574 3.656 88.982 88.982 0 0 1-2.754 3.528 88.953 88.953 0 0 1-2.922 3.387 89.286 89.286 0 0 1-3.082 3.238 93.033 93.033 0 0 1-3.242 3.086 91.7 91.7 0 0 1-10.57 8.25 90.393 90.393 0 0 1-3.778 2.39 91.15 91.15 0 0 1-3.89 2.207 90.928 90.928 0 0 1-20.82 8.027 86.938 86.938 0 0 1-4.364.981 89.47 89.47 0 0 1-8.848 1.313 84.987 84.987 0 0 1-4.46.328 89.79 89.79 0 0 1-4.47.113c-1.492 0-2.984-.039-4.472-.113a85.299 85.299 0 0 1-4.461-.328 89.47 89.47 0 0 1-8.848-1.313 87.919 87.919 0 0 1-4.363-.98 86.962 86.962 0 0 1-4.313-1.192 94.682 94.682 0 0 1-4.246-1.402 92.994 92.994 0 0 1-4.175-1.61 90.924 90.924 0 0 1-11.977-6.031 90.394 90.394 0 0 1-7.434-4.968 88.888 88.888 0 0 1-3.527-2.75 92.605 92.605 0 0 1-3.387-2.922 92.914 92.914 0 0 1-6.324-6.324 92.604 92.604 0 0 1-2.922-3.387 92.788 92.788 0 0 1-2.754-3.528 94.688 94.688 0 0 1-2.574-3.656 90.51 90.51 0 0 1-6.61-11.668 90.927 90.927 0 0 1-4.823-12.508 92.818 92.818 0 0 1-1.196-4.312 97.74 97.74 0 0 1-.98-4.363 93.68 93.68 0 0 1-.762-4.41A88.75 88.75 0 0 1 .785 101a89.782 89.782 0 0 1-.441-8.934 89.782 89.782 0 0 1 .441-8.934 92.654 92.654 0 0 1 1.309-8.844c.293-1.464.62-2.917.98-4.366a91.337 91.337 0 0 1 1.196-4.309 90.095 90.095 0 0 1 3.011-8.422 90.928 90.928 0 0 1 8.422-15.757 94.686 94.686 0 0 1 2.574-3.657c.891-1.199 1.809-2.37 2.754-3.527a92.604 92.604 0 0 1 2.922-3.387 92.915 92.915 0 0 1 6.324-6.324c1.106-1 2.235-1.973 3.387-2.922a88.887 88.887 0 0 1 3.527-2.75 85.364 85.364 0 0 1 3.657-2.574 86.602 86.602 0 0 1 3.777-2.395 93.16 93.16 0 0 1 3.895-2.207 86.735 86.735 0 0 1 3.996-2.007 88.39 88.39 0 0 1 4.086-1.813 88.56 88.56 0 0 1 4.175-1.613 94.68 94.68 0 0 1 4.246-1.403A91.448 91.448 0 0 1 73.7 2.684a89.552 89.552 0 0 1 8.848-1.313 89.767 89.767 0 0 1 4.46-.328c1.49-.074 2.981-.11 4.473-.11 1.489 0 2.98.036 4.47.11 1.491.07 2.976.184 4.46.328a89.47 89.47 0 0 1 8.848 1.313c1.465.289 2.918.617 4.363.98a90.164 90.164 0 0 1 12.734 4.207 86.709 86.709 0 0 1 4.09 1.813 90.88 90.88 0 0 1 3.996 2.007 95.586 95.586 0 0 1 3.891 2.207 86.602 86.602 0 0 1 3.777 2.395 88.02 88.02 0 0 1 3.66 2.574 91.7 91.7 0 0 1 6.91 5.672 93.034 93.034 0 0 1 3.243 3.086 89.287 89.287 0 0 1 3.082 3.238 91.927 91.927 0 0 1 5.676 6.914 90.612 90.612 0 0 1 7.172 11.328 90.953 90.953 0 0 1 5.433 12.258 90.144 90.144 0 0 1 3.578 12.926c.29 1.461.547 2.93.766 4.406.219 1.473.398 2.953.547 4.438.144 1.484.254 2.972.328 4.46.074 1.493.11 2.981.11 4.473Zm0 0"></path></g></g></g></g></svg>